<mxfile host="app.diagrams.net" modified="2024-01-29T02:15:56.677Z" agent="Mozilla/5.0 (Windows NT 10.0; Win64; x64) AppleWebKit/537.36 (KHTML, like Gecko) Chrome/120.0.0.0 Safari/537.36" etag="OQNt2OAOfzD-RDWce01V" version="23.0.2" type="device">
  <diagram name="Page-1" id="VqDot4BEGNgwhcivmTdY">
    <mxGraphModel dx="1105" dy="549" grid="1" gridSize="10" guides="1" tooltips="1" connect="1" arrows="1" fold="1" page="1" pageScale="1" pageWidth="850" pageHeight="1100" math="0" shadow="0">
      <root>
        <mxCell id="0" />
        <mxCell id="1" parent="0" />
        <mxCell id="xhJ7jauMjRR7VgR7Hack-1" value="HCL" style="rounded=0;whiteSpace=wrap;html=1;" parent="1" vertex="1">
          <mxGeometry x="360" y="120" width="120" height="60" as="geometry" />
        </mxCell>
        <mxCell id="xhJ7jauMjRR7VgR7Hack-2" value="Actor" style="shape=umlActor;verticalLabelPosition=bottom;verticalAlign=top;html=1;outlineConnect=0;" parent="1" vertex="1">
          <mxGeometry x="405" y="500" width="30" height="60" as="geometry" />
        </mxCell>
        <mxCell id="xhJ7jauMjRR7VgR7Hack-3" value="Bank" style="rounded=0;whiteSpace=wrap;html=1;" parent="1" vertex="1">
          <mxGeometry x="150" y="220" width="120" height="60" as="geometry" />
        </mxCell>
        <mxCell id="xhJ7jauMjRR7VgR7Hack-6" value="" style="edgeStyle=orthogonalEdgeStyle;rounded=0;orthogonalLoop=1;jettySize=auto;html=1;" parent="1" source="xhJ7jauMjRR7VgR7Hack-4" target="xhJ7jauMjRR7VgR7Hack-2" edge="1">
          <mxGeometry relative="1" as="geometry" />
        </mxCell>
        <mxCell id="liSBuWrigFrLsLbLje8O-1" style="edgeStyle=orthogonalEdgeStyle;rounded=0;orthogonalLoop=1;jettySize=auto;html=1;" parent="1" source="xhJ7jauMjRR7VgR7Hack-4" edge="1">
          <mxGeometry relative="1" as="geometry">
            <mxPoint x="180" y="460" as="targetPoint" />
          </mxGeometry>
        </mxCell>
        <mxCell id="xhJ7jauMjRR7VgR7Hack-4" value="AWS account will be under the client name" style="rounded=0;whiteSpace=wrap;html=1;" parent="1" vertex="1">
          <mxGeometry x="320" y="320" width="200" height="100" as="geometry" />
        </mxCell>
        <mxCell id="xhJ7jauMjRR7VgR7Hack-8" value="Actor" style="shape=umlActor;verticalLabelPosition=bottom;verticalAlign=top;html=1;outlineConnect=0;" parent="1" vertex="1">
          <mxGeometry x="480" y="500" width="30" height="60" as="geometry" />
        </mxCell>
        <mxCell id="xhJ7jauMjRR7VgR7Hack-9" value="&amp;nbsp;root user / owner of the account" style="text;html=1;align=center;verticalAlign=middle;resizable=0;points=[];autosize=1;strokeColor=none;fillColor=none;" parent="1" vertex="1">
          <mxGeometry x="540" y="355" width="200" height="30" as="geometry" />
        </mxCell>
        <mxCell id="xhJ7jauMjRR7VgR7Hack-10" value="IAM users or Federated users" style="text;html=1;strokeColor=none;fillColor=none;align=center;verticalAlign=middle;whiteSpace=wrap;rounded=0;" parent="1" vertex="1">
          <mxGeometry x="530" y="540" width="180" height="50" as="geometry" />
        </mxCell>
        <mxCell id="xhJ7jauMjRR7VgR7Hack-11" value="&lt;font style=&quot;font-size: 14px;&quot;&gt;Administartor access&lt;br&gt;as a policy/permissions&lt;/font&gt;" style="text;html=1;strokeColor=none;fillColor=none;align=center;verticalAlign=middle;whiteSpace=wrap;rounded=0;" parent="1" vertex="1">
          <mxGeometry x="20" y="410" width="160" height="60" as="geometry" />
        </mxCell>
        <mxCell id="xhJ7jauMjRR7VgR7Hack-12" value="Sindhusha account" style="rounded=0;whiteSpace=wrap;html=1;" parent="1" vertex="1">
          <mxGeometry x="360" y="720" width="120" height="60" as="geometry" />
        </mxCell>
        <mxCell id="xhJ7jauMjRR7VgR7Hack-13" value="Actor" style="shape=umlActor;verticalLabelPosition=bottom;verticalAlign=top;html=1;outlineConnect=0;" parent="1" vertex="1">
          <mxGeometry x="405" y="870" width="30" height="60" as="geometry" />
        </mxCell>
        <mxCell id="xhJ7jauMjRR7VgR7Hack-14" style="edgeStyle=orthogonalEdgeStyle;rounded=0;orthogonalLoop=1;jettySize=auto;html=1;entryX=0.5;entryY=0;entryDx=0;entryDy=0;entryPerimeter=0;" parent="1" source="xhJ7jauMjRR7VgR7Hack-12" target="xhJ7jauMjRR7VgR7Hack-13" edge="1">
          <mxGeometry relative="1" as="geometry" />
        </mxCell>
        <mxCell id="xhJ7jauMjRR7VgR7Hack-15" value="&lt;font style=&quot;font-size: 14px;&quot;&gt;IAM user - Sindhusha devops&lt;br&gt;&lt;br&gt;Administrator access&lt;/font&gt;" style="text;html=1;strokeColor=none;fillColor=none;align=center;verticalAlign=middle;whiteSpace=wrap;rounded=0;" parent="1" vertex="1">
          <mxGeometry x="441" y="890" width="190" height="55" as="geometry" />
        </mxCell>
        <mxCell id="xhJ7jauMjRR7VgR7Hack-16" value="root user&lt;br&gt;Email ID and password" style="text;html=1;strokeColor=none;fillColor=none;align=center;verticalAlign=middle;whiteSpace=wrap;rounded=0;" parent="1" vertex="1">
          <mxGeometry x="505" y="710" width="120" height="70" as="geometry" />
        </mxCell>
        <mxCell id="liSBuWrigFrLsLbLje8O-5" value="" style="edgeStyle=orthogonalEdgeStyle;rounded=0;orthogonalLoop=1;jettySize=auto;html=1;" parent="1" source="liSBuWrigFrLsLbLje8O-2" target="liSBuWrigFrLsLbLje8O-4" edge="1">
          <mxGeometry relative="1" as="geometry" />
        </mxCell>
        <mxCell id="liSBuWrigFrLsLbLje8O-2" value="Actor" style="shape=umlActor;verticalLabelPosition=bottom;verticalAlign=top;html=1;outlineConnect=0;" parent="1" vertex="1">
          <mxGeometry x="165" y="500" width="30" height="60" as="geometry" />
        </mxCell>
        <mxCell id="liSBuWrigFrLsLbLje8O-3" value="&lt;font style=&quot;font-size: 14px;&quot;&gt;IAM user&lt;/font&gt;" style="text;html=1;strokeColor=none;fillColor=none;align=center;verticalAlign=middle;whiteSpace=wrap;rounded=0;" parent="1" vertex="1">
          <mxGeometry x="150" y="340" width="60" height="30" as="geometry" />
        </mxCell>
        <mxCell id="liSBuWrigFrLsLbLje8O-4" value="Actor" style="shape=umlActor;verticalLabelPosition=bottom;verticalAlign=top;html=1;outlineConnect=0;" parent="1" vertex="1">
          <mxGeometry x="350" y="500" width="30" height="60" as="geometry" />
        </mxCell>
        <mxCell id="liSBuWrigFrLsLbLje8O-8" value="" style="edgeStyle=orthogonalEdgeStyle;rounded=0;orthogonalLoop=1;jettySize=auto;html=1;" parent="1" source="liSBuWrigFrLsLbLje8O-6" target="liSBuWrigFrLsLbLje8O-7" edge="1">
          <mxGeometry relative="1" as="geometry" />
        </mxCell>
        <mxCell id="liSBuWrigFrLsLbLje8O-10" value="" style="edgeStyle=orthogonalEdgeStyle;rounded=0;orthogonalLoop=1;jettySize=auto;html=1;" parent="1" source="liSBuWrigFrLsLbLje8O-6" target="liSBuWrigFrLsLbLje8O-9" edge="1">
          <mxGeometry relative="1" as="geometry" />
        </mxCell>
        <mxCell id="liSBuWrigFrLsLbLje8O-6" value="AWS account" style="rounded=0;whiteSpace=wrap;html=1;" parent="1" vertex="1">
          <mxGeometry x="340" y="1100" width="120" height="60" as="geometry" />
        </mxCell>
        <mxCell id="liSBuWrigFrLsLbLje8O-7" value="GUI&lt;br&gt;Management console" style="rounded=0;whiteSpace=wrap;html=1;" parent="1" vertex="1">
          <mxGeometry x="180" y="1270" width="120" height="60" as="geometry" />
        </mxCell>
        <mxCell id="liSBuWrigFrLsLbLje8O-9" value="AWS CLI&lt;br&gt;Black screen" style="rounded=0;whiteSpace=wrap;html=1;" parent="1" vertex="1">
          <mxGeometry x="505" y="1270" width="120" height="60" as="geometry" />
        </mxCell>
        <mxCell id="k8OR5i-twZWyqBZ3G44j-1" value="" style="rounded=0;whiteSpace=wrap;html=1;" parent="1" vertex="1">
          <mxGeometry x="195" y="1610" width="120" height="60" as="geometry" />
        </mxCell>
        <mxCell id="k8OR5i-twZWyqBZ3G44j-2" value="Actor" style="shape=umlActor;verticalLabelPosition=bottom;verticalAlign=top;html=1;outlineConnect=0;" parent="1" vertex="1">
          <mxGeometry x="300" y="1520" width="30" height="60" as="geometry" />
        </mxCell>
        <mxCell id="k8OR5i-twZWyqBZ3G44j-3" value="" style="rounded=0;whiteSpace=wrap;html=1;" parent="1" vertex="1">
          <mxGeometry x="330" y="1610" width="120" height="60" as="geometry" />
        </mxCell>
        <mxCell id="k8OR5i-twZWyqBZ3G44j-5" value="" style="rounded=1;whiteSpace=wrap;html=1;" parent="1" vertex="1">
          <mxGeometry x="260" y="1620" width="120" height="60" as="geometry" />
        </mxCell>
        <mxCell id="k8OR5i-twZWyqBZ3G44j-10" value="" style="edgeStyle=orthogonalEdgeStyle;rounded=0;orthogonalLoop=1;jettySize=auto;html=1;" parent="1" source="k8OR5i-twZWyqBZ3G44j-7" target="k8OR5i-twZWyqBZ3G44j-9" edge="1">
          <mxGeometry relative="1" as="geometry" />
        </mxCell>
        <mxCell id="k8OR5i-twZWyqBZ3G44j-7" value="" style="rounded=0;whiteSpace=wrap;html=1;" parent="1" vertex="1">
          <mxGeometry x="345" y="1830" width="205" height="100" as="geometry" />
        </mxCell>
        <mxCell id="k8OR5i-twZWyqBZ3G44j-8" value="&lt;font style=&quot;font-size: 18px;&quot;&gt;Projectname_cloudteam&lt;/font&gt;" style="text;html=1;strokeColor=none;fillColor=none;align=center;verticalAlign=middle;whiteSpace=wrap;rounded=0;" parent="1" vertex="1">
          <mxGeometry x="370" y="1790" width="120" height="30" as="geometry" />
        </mxCell>
        <mxCell id="k8OR5i-twZWyqBZ3G44j-9" value="BASIC PERMISSIONS LIKE READ ACCESS TO LIBRARIES" style="rounded=0;whiteSpace=wrap;html=1;" parent="1" vertex="1">
          <mxGeometry x="100" y="1840" width="160" height="80" as="geometry" />
        </mxCell>
        <mxCell id="k8OR5i-twZWyqBZ3G44j-11" value="GROUP" style="text;html=1;strokeColor=none;fillColor=none;align=center;verticalAlign=middle;whiteSpace=wrap;rounded=0;" parent="1" vertex="1">
          <mxGeometry x="390" y="1760" width="60" height="30" as="geometry" />
        </mxCell>
        <mxCell id="k8OR5i-twZWyqBZ3G44j-12" value="Actor" style="shape=umlActor;verticalLabelPosition=bottom;verticalAlign=top;html=1;outlineConnect=0;" parent="1" vertex="1">
          <mxGeometry x="370" y="1970" width="30" height="60" as="geometry" />
        </mxCell>
        <mxCell id="k8OR5i-twZWyqBZ3G44j-14" value="Actor" style="shape=umlActor;verticalLabelPosition=bottom;verticalAlign=top;html=1;outlineConnect=0;" parent="1" vertex="1">
          <mxGeometry x="425" y="1840" width="30" height="60" as="geometry" />
        </mxCell>
        <mxCell id="8XjuaPsJFP9gLqbiDcLA-1" value="EC2" style="rounded=0;whiteSpace=wrap;html=1;" vertex="1" parent="1">
          <mxGeometry x="195" y="2240" width="125" height="60" as="geometry" />
        </mxCell>
        <mxCell id="8XjuaPsJFP9gLqbiDcLA-2" value="ECR" style="rounded=0;whiteSpace=wrap;html=1;" vertex="1" parent="1">
          <mxGeometry x="560" y="2240" width="120" height="60" as="geometry" />
        </mxCell>
        <mxCell id="8XjuaPsJFP9gLqbiDcLA-3" value="&lt;font style=&quot;font-size: 18px;&quot;&gt;IAM roles&lt;/font&gt;" style="text;html=1;align=center;verticalAlign=middle;resizable=0;points=[];autosize=1;strokeColor=none;fillColor=none;" vertex="1" parent="1">
          <mxGeometry x="90" y="2143" width="100" height="40" as="geometry" />
        </mxCell>
        <mxCell id="8XjuaPsJFP9gLqbiDcLA-4" value="Role" style="text;html=1;strokeColor=none;fillColor=none;align=center;verticalAlign=middle;whiteSpace=wrap;rounded=0;" vertex="1" parent="1">
          <mxGeometry x="227.5" y="2280" width="60" height="30" as="geometry" />
        </mxCell>
      </root>
    </mxGraphModel>
  </diagram>
</mxfile>
